<svg xmlns="http://www.w3.org/2000/svg" xmlns:xlink="http://www.w3.org/1999/xlink" preserveAspectRatio="xMidYMid" width="33.094" height="72.25" viewBox="0 0 33.094 72.25">
  <defs>
    <style>
      .cls-1 {
        fill: #fff;
        fill-rule: evenodd;
      }
    </style>
  </defs>
  <path d="M22.358,62.740 C20.828,63.962 18.735,64.198 16.923,65.056 C15.805,65.584 14.782,66.475 13.653,66.746 C9.315,67.793 6.109,71.706 0.885,72.249 C0.454,71.454 0.509,71.335 0.009,70.586 C0.790,69.201 0.934,67.723 1.420,66.550 C1.001,66.406 0.517,66.414 0.319,65.734 C0.493,65.576 0.564,65.378 0.446,65.109 C2.585,64.306 3.751,61.982 4.253,60.351 C5.187,57.292 7.438,53.745 7.285,50.824 C7.536,50.639 7.798,50.877 7.769,50.606 C7.714,49.496 8.495,47.535 9.290,46.304 C9.087,44.995 9.590,43.965 10.712,43.185 C11.064,44.873 9.763,45.900 9.739,47.435 C10.357,45.903 11.674,43.557 12.392,41.669 C12.826,40.528 12.733,39.145 14.008,39.038 C14.527,43.896 11.745,47.413 10.855,51.679 C10.016,53.022 9.035,54.309 8.730,55.860 C7.175,57.376 6.943,59.403 5.445,60.942 C5.271,62.239 4.862,63.149 4.642,64.137 C8.632,62.376 11.556,59.693 14.609,57.331 C17.535,54.208 19.239,50.605 21.746,47.322 C26.026,39.782 27.791,31.185 29.601,22.557 C30.168,16.161 30.930,8.893 27.704,2.515 C27.325,1.767 26.622,1.238 26.666,0.224 C27.414,-0.301 27.664,0.374 28.206,0.345 C32.560,10.501 31.357,22.220 28.593,31.199 C27.654,37.602 24.382,45.101 20.201,51.031 C19.721,52.814 17.184,55.837 15.947,56.908 C13.390,60.031 9.346,62.816 3.966,65.763 C3.633,66.935 2.898,67.961 2.684,69.171 C4.184,68.654 5.961,67.502 7.659,66.887 C8.344,66.643 9.089,66.744 9.611,66.551 C13.703,65.029 15.863,63.471 19.879,61.649 C23.096,60.195 27.651,58.367 29.972,57.570 C31.212,57.147 32.705,56.752 32.988,57.291 C33.451,58.186 32.111,58.434 31.201,58.852 C29.133,59.814 24.930,62.396 22.358,62.740 ZM9.020,54.214 C9.708,52.071 12.328,46.509 12.674,43.831 C10.066,47.701 7.892,52.916 6.412,57.668 C7.470,57.164 7.749,55.074 9.020,54.214 ZM2.679,66.352 C2.894,65.885 2.106,67.038 2.133,67.355 C2.634,67.666 2.666,66.672 2.679,66.352 ZM26.986,59.869 C26.421,59.865 25.497,60.106 25.416,60.592 C18.743,62.365 12.728,66.201 1.849,70.868 C3.911,71.201 6.168,69.436 8.714,68.086 C15.160,64.671 21.758,63.169 26.986,59.869 Z" class="cls-1"/>
</svg>
