<svg xmlns="http://www.w3.org/2000/svg" xmlns:xlink="http://www.w3.org/1999/xlink" preserveAspectRatio="xMidYMid" width="26.84" height="64.13" viewBox="0 0 26.84 64.13">
  <defs>
    <style>
      .cls-1 {
        fill: #fff;
        fill-rule: evenodd;
      }
    </style>
  </defs>
  <path d="M19.985,49.762 C19.209,51.224 17.600,52.092 16.460,53.357 C15.757,54.136 15.269,55.166 14.461,55.746 C11.368,57.962 10.273,62.057 6.307,64.133 C5.667,63.645 5.666,63.533 4.990,63.105 C5.094,61.774 4.658,60.572 4.607,59.502 C4.221,59.522 3.841,59.681 3.432,59.214 C3.511,59.034 3.494,58.858 3.301,58.686 C4.695,57.381 4.754,55.197 4.545,53.768 C4.149,51.092 4.613,47.614 3.408,45.406 C3.537,45.182 3.833,45.279 3.710,45.080 C3.256,44.242 3.145,42.474 3.316,41.266 C2.673,40.326 2.689,39.370 3.285,38.399 C4.187,39.579 3.540,40.799 4.090,41.989 C4.011,40.607 4.181,38.367 4.048,36.679 C3.968,35.660 3.383,34.630 4.349,34.123 C6.564,37.681 5.668,41.311 6.551,44.901 C6.386,46.215 6.087,47.532 6.423,48.833 C5.755,50.515 6.326,52.166 5.711,53.845 C6.056,54.911 6.070,55.752 6.264,56.592 C8.782,53.938 10.111,50.900 11.666,48.063 C12.834,44.669 12.840,41.305 13.612,37.922 C14.198,30.649 12.368,23.437 10.573,16.225 C8.633,11.175 6.533,5.427 1.648,1.795 C1.078,1.370 0.336,1.227 0.000,0.456 C0.391,-0.200 0.833,0.213 1.246,-0.001 C8.421,6.060 11.847,15.357 13.016,23.173 C14.682,28.414 14.891,35.317 13.774,41.316 C14.063,42.863 13.168,46.054 12.580,47.296 C11.706,50.567 9.518,54.052 6.334,58.078 C6.507,59.100 6.305,60.136 6.587,61.152 C7.588,60.271 8.574,58.803 9.700,57.779 C10.156,57.370 10.791,57.211 11.137,56.892 C13.850,54.380 14.999,52.456 17.553,49.717 C19.610,47.518 22.620,44.574 24.212,43.174 C25.065,42.426 26.140,41.616 26.582,41.945 C27.312,42.493 26.305,43.138 25.719,43.772 C24.393,45.218 21.952,48.645 19.985,49.762 ZM6.040,47.463 C5.788,45.579 5.794,40.423 5.073,38.247 C4.446,42.086 4.663,46.825 5.258,50.988 C5.910,50.255 5.352,48.543 6.040,47.463 ZM5.531,58.947 C5.528,58.514 5.332,59.666 5.472,59.905 C5.985,59.989 5.640,59.201 5.531,58.947 ZM22.656,45.977 C22.193,46.160 21.531,46.655 21.652,47.064 C16.906,50.650 13.509,55.615 6.557,62.745 C8.325,62.356 9.466,60.254 10.996,58.382 C14.888,53.628 19.662,50.296 22.656,45.977 Z" class="cls-1"/>
</svg>
