<svg xmlns="http://www.w3.org/2000/svg" xmlns:xlink="http://www.w3.org/1999/xlink" preserveAspectRatio="xMidYMid" width="40.28" height="81.684" viewBox="0 0 40.28 81.684">
  <defs>
    <style>
      .cls-1 {
        fill: #fff;
        fill-rule: evenodd;
      }
    </style>
  </defs>
  <path d="M27.029,72.507 C25.131,73.818 22.595,73.895 20.377,74.741 C19.011,75.263 17.745,76.221 16.379,76.432 C11.150,77.247 7.155,81.572 0.946,81.684 C0.478,80.699 0.548,80.564 -0.002,79.628 C0.986,78.069 1.229,76.339 1.860,75.003 C1.374,74.791 0.804,74.754 0.605,73.935 C0.818,73.765 0.912,73.540 0.786,73.211 C3.342,72.471 4.829,69.845 5.499,67.975 C6.745,64.471 9.566,60.515 9.518,57.088 C9.823,56.893 10.122,57.194 10.100,56.874 C10.086,55.576 11.095,53.354 12.088,51.984 C11.907,50.447 12.546,49.291 13.905,48.472 C14.247,50.461 12.664,51.554 12.568,53.338 C13.366,51.605 15.025,48.979 15.955,46.840 C16.518,45.549 16.467,43.937 17.979,43.907 C18.392,49.596 14.942,53.476 13.701,58.389 C12.647,59.891 11.428,61.314 10.997,63.105 C9.088,64.747 8.719,67.108 6.877,68.780 C6.610,70.291 6.084,71.323 5.776,72.467 C10.584,70.768 14.181,67.873 17.926,65.363 C21.556,61.939 23.742,57.841 26.880,54.188 C32.309,45.679 34.735,35.772 37.203,25.885 C38.095,18.546 39.242,10.259 35.603,2.850 C35.178,1.986 34.362,1.358 34.449,0.214 C35.353,-0.348 35.627,0.426 36.272,0.416 C41.147,12.182 39.329,25.603 35.701,35.844 C34.350,43.250 30.136,51.794 24.881,58.425 C24.234,60.485 21.069,63.831 19.543,64.986 C16.353,68.440 11.413,71.355 4.901,74.321 C4.451,75.671 3.532,76.812 3.220,78.221 C5.019,77.758 7.178,76.570 9.222,76.009 C10.047,75.787 10.929,75.980 11.559,75.804 C16.513,74.396 19.169,72.753 24.076,70.970 C28.021,69.544 33.621,67.789 36.480,67.054 C38.011,66.664 39.853,66.330 40.183,67.002 C40.723,68.116 39.070,68.287 37.940,68.704 C35.378,69.658 30.164,72.345 27.029,72.507 ZM11.415,61.201 C12.326,58.751 15.672,52.468 16.197,49.376 C12.942,53.675 10.139,59.584 8.172,65.021 C9.446,64.524 9.872,62.098 11.415,61.201 ZM3.353,74.891 C3.629,74.361 2.644,75.645 2.660,76.022 C3.235,76.438 3.322,75.267 3.353,74.891 ZM32.757,69.521 C32.070,69.465 30.937,69.664 30.820,70.236 C22.677,71.713 15.296,75.693 2.152,80.146 C4.573,80.748 7.332,78.882 10.421,77.535 C18.275,74.112 26.287,72.962 32.757,69.521 Z" class="cls-1"/>
</svg>
