<?xml version="1.0" encoding="UTF-8" standalone="no"?>
<svg width="235px" height="259px" viewBox="0 0 235 259" version="1.1" xmlns="http://www.w3.org/2000/svg" xmlns:xlink="http://www.w3.org/1999/xlink">
    <defs></defs>
    <g stroke="none" stroke-width="1" fill="none" fill-rule="evenodd">
        <path d="M3.66886661,253.59944 C1.66177061,250.847418 0.50936162,246.963488 0.50936162,242.121538 L0.50936162,15.5550827 C0.50936162,11.188385 1.48518162,7.63220216 3.20006227,5.02471769 L3.20006227,5.02471769 L127.721825,129.546481 L3.66886661,253.59944 Z M14.5434788,258.281177 C17.2006824,258.041895 20.1116701,257.096651 23.1636134,255.379545 L170.602034,172.42669 L135.5,137.324655 L14.5434788,258.281177 Z M170.865486,86.4028198 L22.2917177,2.81118692 C19.2531498,1.10160617 16.3595802,0.18802292 13.7316938,2.06223927e-14 L13.7316938,2.17603713e-14 L135.5,121.768306 L170.865486,86.4028198 Z M180.82074,92.0039155 L225.399788,117.085297 C237.429851,123.853737 237.426787,134.829271 225.399788,141.595986 L180.557288,166.825594 L143.278175,129.546481 L180.82074,92.0039155 Z" fill="#FFFFFF"></path>
    </g>
</svg>