<svg xmlns="http://www.w3.org/2000/svg" xmlns:xlink="http://www.w3.org/1999/xlink" preserveAspectRatio="xMidYMid" width="301" height="639" viewBox="0 0 301 639">
  <defs>
    <style>
      .cls-1, .cls-2 {
        fill: #383838;
        stroke-linejoin: round;
        stroke-width: 1px;
      }

      .cls-1 {
        stroke: #bbb;
      }

      .cls-2 {
        stroke: #eee;
      }

      .cls-3 {
        fill: #fff;
      }

      .cls-4 {
        fill: #eee;
        fill-rule: evenodd;
      }
    </style>
  </defs>
  <g>
    <rect x="0.5" y="0.5" width="300" height="638" rx="34.951" ry="34.951" class="cls-1"/>
    <circle cx="150.5" cy="589.5" r="25" class="cls-2"/>
    <rect x="20.5" y="93.5" width="260" height="455" class="cls-3"/>
    <path d="M151.456,18.934 C153.869,18.934 155.825,20.891 155.825,23.305 C155.825,25.717 153.869,27.674 151.456,27.674 C149.043,27.674 147.087,25.717 147.087,23.305 C147.087,20.891 149.043,18.934 151.456,18.934 Z" class="cls-4"/>
    <path d="M144.497,579.999 L155.504,579.999 C156.882,579.999 158.000,582.307 158.000,583.686 L158.000,595.502 C158.000,596.878 156.882,597.999 155.504,597.999 L144.497,597.999 C143.117,597.999 142.000,596.878 142.000,595.502 L142.000,582.496 C142.000,581.115 143.117,579.999 144.497,579.999 Z" class="cls-4"/>
    <path d="M134.236,51.998 L176.677,51.998 C179.434,51.998 181.670,54.215 181.670,56.629 C181.670,59.041 179.434,60.999 176.677,60.999 L134.236,60.999 C131.478,60.999 129.243,59.430 129.243,57.018 C129.243,54.604 131.478,51.998 134.236,51.998 Z" class="cls-4"/>
  </g>
</svg>
