<svg xmlns="http://www.w3.org/2000/svg" xmlns:xlink="http://www.w3.org/1999/xlink" preserveAspectRatio="xMidYMid" width="35.531" height="23.06" viewBox="0 0 35.531 23.06">
  <defs>
    <style>
      .cls-1 {
        fill: #fff;
        fill-rule: evenodd;
      }
    </style>
  </defs>
  <path d="M11.135,20.934 C10.148,20.820 9.311,20.144 8.352,19.795 C7.761,19.581 7.074,19.529 6.571,19.218 C4.636,18.021 2.084,18.266 0.010,16.567 C0.138,16.123 0.201,16.101 0.288,15.650 C1.064,15.434 1.644,14.954 2.238,14.708 C2.139,14.504 1.961,14.331 2.133,14.015 C2.252,14.021 2.348,13.976 2.402,13.836 C3.459,14.323 4.709,13.909 5.471,13.504 C6.900,12.743 8.977,12.283 9.965,11.176 C10.122,11.200 10.131,11.381 10.218,11.272 C10.594,10.854 11.576,10.430 12.301,10.276 C12.696,9.731 13.244,9.543 13.927,9.669 C13.451,10.405 12.616,10.302 12.059,10.846 C12.829,10.519 14.140,10.151 15.073,9.733 C15.637,9.480 16.098,8.948 16.594,9.372 C15.047,11.308 12.789,11.565 10.945,12.778 C10.163,12.957 9.351,13.065 8.687,13.513 C7.586,13.495 6.778,14.139 5.690,14.150 C5.164,14.554 4.692,14.733 4.259,15.009 C6.325,15.823 8.335,15.918 10.278,16.175 C12.447,16.112 14.346,15.434 16.421,15.161 C20.655,14.001 24.361,11.546 28.093,9.097 C30.582,7.000 33.452,4.660 34.568,1.194 C34.699,0.787 34.635,0.341 35.013,-0.008 C35.470,0.075 35.318,0.408 35.524,0.595 C33.464,5.831 28.846,9.612 24.644,11.843 C22.020,13.806 18.163,15.318 14.540,15.936 C13.731,16.403 11.738,16.572 10.911,16.509 C8.875,16.704 6.424,16.240 3.436,15.349 C2.897,15.650 2.266,15.752 1.757,16.110 C2.481,16.469 3.532,16.699 4.364,17.094 C4.697,17.254 4.929,17.561 5.186,17.681 C7.202,18.619 8.536,18.840 10.633,19.642 C12.310,20.285 14.603,21.280 15.722,21.836 C16.320,22.132 16.998,22.532 16.908,22.830 C16.755,23.319 16.184,22.923 15.707,22.743 C14.619,22.338 12.184,21.744 11.135,20.934 ZM9.379,13.026 C10.392,12.504 13.322,11.451 14.403,10.613 C12.082,11.060 9.436,12.149 7.207,13.322 C7.768,13.525 8.615,12.874 9.379,13.026 ZM2.762,15.093 C3.006,15.004 2.310,15.133 2.207,15.256 C2.276,15.551 2.643,15.204 2.762,15.093 ZM13.827,21.579 C13.625,21.373 13.206,21.125 13.003,21.270 C9.968,19.487 6.433,18.686 0.850,16.418 C1.474,17.286 2.917,17.471 4.315,17.908 C7.855,19.017 10.766,20.871 13.827,21.579 Z" class="cls-1"/>
</svg>
