<svg xmlns="http://www.w3.org/2000/svg" xmlns:xlink="http://www.w3.org/1999/xlink" preserveAspectRatio="xMidYMid" width="57.281" height="23.22" viewBox="0 0 57.281 23.22">
  <defs>
    <style>
      .cls-1 {
        fill: #fff;
        fill-rule: evenodd;
      }
    </style>
  </defs>
  <path d="M44.367,17.401 C45.665,16.742 46.463,15.376 47.596,14.407 C48.294,13.811 49.207,13.396 49.733,12.711 C51.749,10.077 55.353,9.152 57.277,5.770 C56.870,5.221 56.773,5.221 56.418,4.640 C55.253,4.724 54.215,4.345 53.279,4.297 C53.307,3.966 53.457,3.639 53.059,3.286 C52.900,3.354 52.746,3.338 52.600,3.171 C51.418,4.365 49.500,4.406 48.249,4.222 C45.902,3.870 42.823,4.255 40.896,3.205 C40.694,3.317 40.775,3.572 40.600,3.465 C39.867,3.068 38.302,2.965 37.225,3.108 C36.402,2.547 35.552,2.556 34.677,3.068 C35.711,3.854 36.807,3.300 37.853,3.781 C36.626,3.706 34.632,3.844 33.132,3.722 C32.224,3.648 31.315,3.137 30.847,3.972 C33.981,5.902 37.222,5.141 40.383,5.916 C41.548,5.777 42.718,5.525 43.859,5.819 C45.356,5.249 46.795,5.746 48.288,5.224 C49.216,5.524 49.953,5.539 50.686,5.709 C48.293,7.859 45.593,8.989 43.063,10.315 C40.049,11.309 37.079,11.309 34.072,11.967 C27.603,12.462 21.184,10.878 14.718,9.312 C10.165,7.614 4.950,5.764 1.637,1.462 C1.249,0.958 1.116,0.304 0.410,0.003 C-0.192,0.345 0.187,0.736 -0.009,1.098 C5.522,7.414 13.926,10.414 20.940,11.437 C25.606,12.876 31.741,13.061 37.071,12.110 C38.430,12.358 41.262,11.596 42.368,11.095 C45.264,10.353 48.375,8.489 51.986,5.773 C52.875,5.926 53.788,5.756 54.667,6.001 C53.870,6.855 52.560,7.694 51.634,8.653 C51.263,9.042 51.108,9.584 50.821,9.878 C48.555,12.188 46.843,13.165 44.384,15.337 C42.411,17.084 39.765,19.640 38.505,20.992 C37.833,21.715 37.101,22.625 37.381,22.998 C37.848,23.612 38.433,22.760 39.001,22.264 C40.294,21.140 43.347,19.068 44.367,17.401 ZM42.658,5.484 C40.999,5.260 36.430,5.247 34.509,4.616 C37.932,4.089 42.125,4.295 45.785,4.824 C45.123,5.382 43.626,4.897 42.658,5.484 ZM52.769,5.089 C52.389,5.084 53.403,4.920 53.608,5.041 C53.668,5.481 52.988,5.183 52.769,5.089 ZM40.994,19.669 C41.165,19.276 41.613,18.715 41.969,18.816 C45.216,14.786 49.643,11.899 56.059,5.982 C55.668,7.491 53.803,8.459 52.127,9.762 C47.870,13.072 44.843,17.127 40.994,19.669 Z" class="cls-1"/>
</svg>
