<svg xmlns="http://www.w3.org/2000/svg" xmlns:xlink="http://www.w3.org/1999/xlink" preserveAspectRatio="xMidYMid" width="35.531" height="23.06" viewBox="0 0 35.531 23.06">
  <defs>
    <style>
      .cls-1 {
        fill: #fff;
        fill-rule: evenodd;
      }
    </style>
  </defs>
  <path d="M24.400,20.934 C25.387,20.820 26.224,20.144 27.183,19.795 C27.774,19.581 28.461,19.529 28.964,19.218 C30.899,18.021 33.451,18.266 35.526,16.567 C35.397,16.123 35.334,16.101 35.247,15.650 C34.471,15.434 33.892,14.954 33.298,14.708 C33.397,14.504 33.574,14.331 33.403,14.015 C33.283,14.021 33.187,13.976 33.134,13.836 C32.077,14.323 30.827,13.909 30.064,13.504 C28.635,12.743 26.558,12.283 25.570,11.176 C25.414,11.200 25.404,11.381 25.318,11.272 C24.941,10.854 23.959,10.430 23.234,10.276 C22.839,9.731 22.291,9.543 21.608,9.669 C22.084,10.405 22.920,10.302 23.476,10.846 C22.707,10.519 21.395,10.151 20.462,9.733 C19.899,9.480 19.438,8.948 18.941,9.372 C20.489,11.308 22.746,11.565 24.590,12.778 C25.372,12.957 26.185,13.065 26.848,13.513 C27.949,13.495 28.757,14.139 29.846,14.150 C30.372,14.554 30.844,14.733 31.276,15.009 C29.211,15.823 27.200,15.918 25.257,16.175 C23.089,16.112 21.189,15.434 19.114,15.161 C14.880,14.001 11.175,11.546 7.442,9.097 C4.954,7.000 2.083,4.660 0.967,1.194 C0.836,0.787 0.900,0.341 0.522,-0.008 C0.066,0.075 0.217,0.408 0.011,0.595 C2.071,5.831 6.689,9.612 10.891,11.843 C13.516,13.806 17.372,15.318 20.995,15.936 C21.804,16.403 23.797,16.572 24.625,16.509 C26.660,16.704 29.111,16.240 32.100,15.349 C32.638,15.650 33.270,15.752 33.779,16.110 C33.054,16.469 32.003,16.699 31.172,17.094 C30.838,17.254 30.606,17.561 30.350,17.681 C28.333,18.619 26.999,18.840 24.903,19.642 C23.225,20.285 20.933,21.280 19.813,21.836 C19.215,22.132 18.537,22.532 18.628,22.830 C18.780,23.319 19.351,22.923 19.828,22.743 C20.916,22.338 23.351,21.744 24.400,20.934 ZM26.156,13.026 C25.143,12.504 22.214,11.451 21.133,10.613 C23.454,11.060 26.099,12.149 28.328,13.322 C27.768,13.525 26.921,12.874 26.156,13.026 ZM32.774,15.093 C32.530,15.004 33.225,15.133 33.328,15.256 C33.259,15.551 32.892,15.204 32.774,15.093 ZM21.709,21.579 C21.911,21.373 22.329,21.125 22.532,21.270 C25.567,19.487 29.102,18.686 34.685,16.418 C34.061,17.286 32.619,17.471 31.220,17.908 C27.681,19.017 24.769,20.871 21.709,21.579 Z" class="cls-1"/>
</svg>
