<?xml version="1.0" encoding="UTF-8" standalone="no"?>
<svg width="70px" height="71px" viewBox="0 0 70 71" version="1.1" xmlns="http://www.w3.org/2000/svg" xmlns:xlink="http://www.w3.org/1999/xlink">
    <defs></defs>
    <g stroke="none" stroke-width="1" fill="none" fill-rule="evenodd">
        <path d="M44.6332645,51.9972255 C40.0460294,55.15286 34.488726,57 28.5,57 C12.7598846,57 0,44.2401154 0,28.5 C0,12.7598846 12.7598846,0 28.5,0 C44.2401154,0 57,12.7598846 57,28.5 C57,35.0026078 54.8222599,40.9965772 51.1563244,45.7923634 L70.0563492,64.6923882 L63.6923882,71.0563492 L44.6332645,51.9972255 Z M28.5,48 C39.2695526,48 48,39.2695526 48,28.5 C48,17.7304474 39.2695526,9 28.5,9 C17.7304474,9 9,17.7304474 9,28.5 C9,39.2695526 17.7304474,48 28.5,48 Z" fill="#FFFFFF"></path>
    </g>
</svg>