<svg xmlns="http://www.w3.org/2000/svg" xmlns:xlink="http://www.w3.org/1999/xlink" preserveAspectRatio="xMidYMid" width="8" height="38" viewBox="0 0 8 38">
  <defs>
    <style>
      .cls-1 {
        fill: #eee;
        opacity: 0.2;
        fill-rule: evenodd;
      }
    </style>
  </defs>
  <g>
    <path d="M-0.000,3.998 C-0.000,1.789 1.791,-0.002 4.000,-0.002 C6.209,-0.002 8.000,1.789 8.000,3.998 C8.000,6.208 6.209,7.998 4.000,7.998 C1.791,7.998 -0.000,6.208 -0.000,3.998 Z" class="cls-1"/>
    <path d="M-0.000,18.999 C-0.000,16.789 1.791,14.999 4.000,14.999 C6.209,14.999 8.000,16.789 8.000,18.999 C8.000,21.208 6.209,22.999 4.000,22.999 C1.791,22.999 -0.000,21.208 -0.000,18.999 Z" class="cls-1"/>
    <path d="M-0.000,33.999 C-0.000,31.790 1.791,29.998 4.000,29.998 C6.209,29.998 8.000,31.790 8.000,33.999 C8.000,36.208 6.209,37.999 4.000,37.999 C1.791,37.999 -0.000,36.208 -0.000,33.999 Z" class="cls-1"/>
  </g>
</svg>
